<svg viewBox="0 0 600 315" xmlns="http://www.w3.org/2000/svg"><path d="m0 0h600v315h-600z" fill="#fff"/><path d="m384.13 99.4a65.3 65.3 0 0 1 -2.77 20 59.78 59.78 0 0 1 -7.81 15.86 77.78 77.78 0 0 1 -12.14 13.62q-7.11 6.39-16.13 13.28-5.55 4.49-9.19 7.93a31.47 31.47 0 0 0 -5.72 7.06 26.06 26.06 0 0 0 -2.95 7.59 44.9 44.9 0 0 0 -.87 9.48v9h-53.79v-13.14a67.91 67.91 0 0 1 1.72-16 47.62 47.62 0 0 1 5.18-12.93 69 69 0 0 1 8.44-11.38 128.13 128.13 0 0 1 11.9-11.41l11.38-10.69a66.82 66.82 0 0 0 10-10.86 22.51 22.51 0 0 0 4.14-13.62q0-11-6.73-17.58t-18.45-6.55q-14.47 0-21.72 9.82a40.47 40.47 0 0 0 -7.93 22.24l-54.82-5.86q2.07-18.62 9.48-32.76a72.31 72.31 0 0 1 19.14-23.44 81.51 81.51 0 0 1 26.57-14 104.63 104.63 0 0 1 31.45-4.65 115.78 115.78 0 0 1 30.26 4 77.39 77.39 0 0 1 26.11 12.42 63 63 0 0 1 18.34 21.55q6.92 13.08 6.91 31.02zm-50.68 152.41a31.38 31.38 0 0 1 -9.66 23.27 32.65 32.65 0 0 1 -23.79 9.48 34.65 34.65 0 0 1 -12.93-2.41 32.85 32.85 0 0 1 -10.69-6.9 34.56 34.56 0 0 1 -7.38-10.34 29.43 29.43 0 0 1 -2.76-12.76 32.15 32.15 0 0 1 9.83-23.1 34.61 34.61 0 0 1 10.83-7.05 33.79 33.79 0 0 1 13.1-2.59 32.53 32.53 0 0 1 12.93 2.59 36.89 36.89 0 0 1 10.69 6.9 30 30 0 0 1 7.24 10.34 31.53 31.53 0 0 1 2.59 12.57z"/><path d="m135.69 178.65v-17.65h-16.49v17.69h-10.2v-42.3h10.2v16h16.49v-16h10.21v42.3z"/><path d="m198.71 157.32a23.67 23.67 0 0 1 -1.73 9.17 20.94 20.94 0 0 1 -4.81 7.11 21.46 21.46 0 0 1 -7.32 4.57 27 27 0 0 1 -18.37 0 21.53 21.53 0 0 1 -7.29-4.57 20.94 20.94 0 0 1 -4.81-7.11 23.67 23.67 0 0 1 -1.73-9.17 23.42 23.42 0 0 1 1.73-9.17 20.13 20.13 0 0 1 4.81-7 21.5 21.5 0 0 1 7.29-4.42 28 28 0 0 1 18.37 0 21.44 21.44 0 0 1 7.32 4.42 20.13 20.13 0 0 1 4.81 7 23.42 23.42 0 0 1 1.73 9.17zm-10.93 0a14.51 14.51 0 0 0 -.9-5.14 12.12 12.12 0 0 0 -2.48-4.09 11.53 11.53 0 0 0 -3.82-2.69 12.22 12.22 0 0 0 -4.93-1 11.7 11.7 0 0 0 -8.72 3.67 11.66 11.66 0 0 0 -2.48 4.09 15.81 15.81 0 0 0 0 10.43 12.46 12.46 0 0 0 2.48 4.15 11.26 11.26 0 0 0 3.79 2.72 12.74 12.74 0 0 0 9.8 0 11.59 11.59 0 0 0 3.82-2.72 12 12 0 0 0 2.51-4.15 15.1 15.1 0 0 0 .93-5.27z"/><path d="m250.27 178.65h-10.1l-8.36-28.65h-.18l-8.37 28.62h-10.15l-12-42.3h11l6.69 28.14h.2l7.53-28.14h10.63l7.59 28.14h.18l6.81-28.14h10.63z"/><path d="m299.73 145.07v33.58h-10.21v-33.58h-11.95v-8.72h34.11v8.72z" fill="#fff"/><path d="m360.43 157.32a23.67 23.67 0 0 1 -1.73 9.17 20.94 20.94 0 0 1 -4.81 7.11 21.56 21.56 0 0 1 -7.32 4.57 25.6 25.6 0 0 1 -9.2 1.61 25.32 25.32 0 0 1 -9.17-1.61 21.53 21.53 0 0 1 -7.29-4.57 20.8 20.8 0 0 1 -4.81-7.11 23.49 23.49 0 0 1 -1.73-9.17 23.24 23.24 0 0 1 1.73-9.17 20 20 0 0 1 4.81-7 21.5 21.5 0 0 1 7.29-4.42 26.42 26.42 0 0 1 9.17-1.55 26.72 26.72 0 0 1 9.2 1.55 21.54 21.54 0 0 1 7.32 4.42 20.13 20.13 0 0 1 4.81 7 23.42 23.42 0 0 1 1.73 9.17zm-10.94 0a14.5 14.5 0 0 0 -.89-5.14 12.45 12.45 0 0 0 -2.48-4.09 11.63 11.63 0 0 0 -3.82-2.69 12.26 12.26 0 0 0 -4.93-1 12 12 0 0 0 -4.9 1 11.84 11.84 0 0 0 -3.82 2.69 11.51 11.51 0 0 0 -2.48 4.09 15.81 15.81 0 0 0 0 10.43 12.3 12.3 0 0 0 2.48 4.15 11.16 11.16 0 0 0 3.79 2.72 12.74 12.74 0 0 0 9.8 0 11.69 11.69 0 0 0 3.82-2.72 12.36 12.36 0 0 0 2.51-4.15 15.1 15.1 0 0 0 .92-5.29z" fill="#fff"/><path d="m416.67 169.66a15 15 0 0 1 -3.67 5.34 16.91 16.91 0 0 1 -5.77 3.5 23.18 23.18 0 0 1 -15 0 16.41 16.41 0 0 1 -5.68-3.5 15.2 15.2 0 0 1 -3.58-5.37 18.51 18.51 0 0 1 -1.25-7v-26.28h10.15v25.51a11.78 11.78 0 0 0 .45 3.29 8.55 8.55 0 0 0 1.37 2.77 6.51 6.51 0 0 0 2.45 2 9.87 9.87 0 0 0 7.35 0 6.7 6.7 0 0 0 2.48-2 7.65 7.65 0 0 0 1.37-2.77 12.57 12.57 0 0 0 .42-3.29v-25.51h10.24v26.35a18.13 18.13 0 0 1 -1.33 6.96z"/><path d="m448.54 147.34a9.15 9.15 0 0 0 -3.43-2.65 9.68 9.68 0 0 0 -4.09-1 12 12 0 0 0 -2.06.18 5.34 5.34 0 0 0 -1.89.69 4.72 4.72 0 0 0 -1.4 1.31 3.5 3.5 0 0 0 -.57 2.06 3.28 3.28 0 0 0 .45 1.79 4.07 4.07 0 0 0 1.31 1.26 11.1 11.1 0 0 0 2.07 1c.79.3 1.69.61 2.68.93q2.16.72 4.48 1.58a17.06 17.06 0 0 1 4.25 2.3 12 12 0 0 1 3.16 3.56 10.17 10.17 0 0 1 1.26 5.28 13.79 13.79 0 0 1 -1.35 6.31 12.59 12.59 0 0 1 -3.61 4.39 15.72 15.72 0 0 1 -5.2 2.57 22.11 22.11 0 0 1 -6 .83 24.76 24.76 0 0 1 -8.78-1.58 18.53 18.53 0 0 1 -7.05-4.51l6.69-6.81a12.44 12.44 0 0 0 4.09 3.2 11.19 11.19 0 0 0 5.05 1.28 10.18 10.18 0 0 0 2.21-.24 5.57 5.57 0 0 0 1.88-.78 3.77 3.77 0 0 0 1.28-1.43 4.49 4.49 0 0 0 .48-2.15 3.39 3.39 0 0 0 -.6-2 5.54 5.54 0 0 0 -1.7-1.52 13.67 13.67 0 0 0 -2.75-1.26c-1.09-.38-2.34-.78-3.73-1.22a35.53 35.53 0 0 1 -4-1.56 13 13 0 0 1 -3.47-2.3 10.74 10.74 0 0 1 -2.45-3.4 11.69 11.69 0 0 1 -.92-4.87 12 12 0 0 1 1.43-6 12.53 12.53 0 0 1 3.76-4.13 16.42 16.42 0 0 1 5.26-2.36 24.19 24.19 0 0 1 5.92-.74 22.06 22.06 0 0 1 7.31 1.31 19 19 0 0 1 6.55 3.88z"/><path d="m461.51 178.65v-42.3h28.43v8.65h-18.58v8h17.57v8.18h-17.57v8.79h19.64v8.72z"/></svg>