<?xml version="1.0" encoding="utf-8"?>
<!-- Generator: Adobe Illustrator 24.0.3, SVG Export Plug-In . SVG Version: 6.00 Build 0)  -->
<svg version="1.1" id="レイヤー_1" xmlns="http://www.w3.org/2000/svg" xmlns:xlink="http://www.w3.org/1999/xlink" x="0px"
	 y="0px" viewBox="0 0 601 316" style="enable-background:new 0 0 601 316;" xml:space="preserve">
<style type="text/css">
	.st0{fill:#FFFFFF;}
</style>
<title>アセット 1</title>
<g id="レイヤー_2_1_">
	<g id="レイヤー_1-2">
		<rect x="0.5" y="0.5" class="st0" width="600" height="315"/>
		<path d="M78.3,184.6l9.7-54.8h18l-7,39.5h18.5l-2.7,15.3H78.3z"/>
		<path d="M120.6,184.6l9.7-54.8h35.8l-2.6,14.9h-19l-0.9,5.3h18.1l-2.5,13.9h-18.1l-1,5.7h21.2l-2.6,14.9H120.6z"/>
		<path d="M199.9,144.9l-7,39.7H175l7-39.7h-13.9l2.7-15.1H216l-2.7,15.1H199.9z"/>
		<path d="M223.4,151.6H211l9.6-21.7h14.3L223.4,151.6z"/>
		<path d="M271.5,146.1c-0.9-1.1-2.1-1.9-3.4-2.5c-1.5-0.7-3.2-1-4.9-1c-1.4,0-2.7,0.3-3.9,0.9c-1.1,0.5-1.8,1.7-1.7,2.9
			c0,1,0.6,1.9,1.5,2.4c1.4,0.7,2.8,1.3,4.3,1.8c2.2,0.7,4.3,1.6,6.3,2.6c1.7,0.9,3.3,2,4.7,3.4c1.3,1.3,2.3,2.8,3,4.4
			c0.7,1.8,1,3.7,1,5.6c0.1,3.2-0.7,6.3-2.3,9c-1.5,2.4-3.5,4.5-5.9,6c-2.4,1.6-5.1,2.7-7.9,3.4c-2.8,0.7-5.6,1.1-8.4,1.1
			c-4.3,0-8.6-0.7-12.7-2.1c-1.9-0.7-3.8-1.5-5.6-2.5c-1.7-0.9-3.2-2-4.6-3.3l12.2-11.2c0.6,0.8,1.4,1.4,2.2,1.9
			c0.9,0.6,1.8,1,2.8,1.4c0.9,0.4,1.9,0.7,2.9,0.9c0.9,0.2,1.8,0.3,2.7,0.4c1.5,0.1,3-0.2,4.3-0.9c1-0.5,1.6-1.5,1.6-2.6
			c0-1-0.5-1.9-1.4-2.5c-1.6-1-3.3-1.8-5.1-2.2c-1.9-0.6-3.7-1.3-5.5-2.2c-1.6-0.8-3.1-1.8-4.5-3c-1.3-1.2-2.3-2.6-3-4.2
			c-0.8-1.9-1.1-3.9-1.1-5.9c0-2.7,0.6-5.4,1.7-7.9c1.2-2.4,2.9-4.6,4.9-6.3c2.3-1.9,4.9-3.3,7.7-4.2c3.2-1,6.5-1.5,9.8-1.5
			c1.9,0,3.9,0.2,5.8,0.5c1.8,0.3,3.7,0.8,5.4,1.4c1.6,0.6,3.2,1.3,4.7,2.1c1.3,0.7,2.6,1.7,3.6,2.8L271.5,146.1z"/>
		<path d="M311,129.8h22.7c3.2,0,6.3,0.4,9.3,1.3c3,0.8,5.9,2.2,8.4,4.1c2.6,1.9,4.7,4.4,6.1,7.2c1.7,3.3,2.5,7.1,2.4,10.8
			c0.1,4.5-0.8,8.9-2.5,13c-1.6,3.8-4,7.1-7,9.9c-3.1,2.8-6.7,4.9-10.6,6.3c-4.3,1.5-8.8,2.3-13.3,2.2h-25.2L311,129.8z
			 M321.5,169.2h5.8c2.1,0,4.2-0.4,6.1-1.2c1.7-0.8,3.2-1.8,4.4-3.2c1.2-1.3,2.1-2.8,2.7-4.5c0.6-1.7,0.9-3.5,0.9-5.2
			c0-1.4-0.2-2.7-0.6-4c-0.4-1.2-1.1-2.3-1.9-3.2c-1-1-2.1-1.7-3.4-2.2c-1.5-0.6-3.2-0.8-4.8-0.8h-4.8L321.5,169.2z"/>
		<path d="M391.2,186c-4,0.1-7.9-0.5-11.6-1.8c-3.2-1.1-6.1-2.8-8.5-5.1c-2.3-2.2-4.1-4.9-5.2-7.9c-1.2-3.2-1.8-6.6-1.8-10.1
			c0-4.4,0.8-8.7,2.4-12.8c3.1-7.9,9.4-14.2,17.3-17.3c4.3-1.7,9-2.6,13.7-2.6c4-0.1,7.9,0.5,11.7,1.8c3.2,1.1,6.1,2.8,8.5,5.1
			c2.3,2.2,4.1,4.9,5.2,7.9c1.2,3.2,1.8,6.6,1.8,10.1c0,4.4-0.8,8.7-2.4,12.8c-1.5,3.9-3.8,7.4-6.7,10.4c-3,3-6.6,5.4-10.5,7
			C400.5,185.2,395.9,186.1,391.2,186z M405.9,154.7c0-1.3-0.2-2.7-0.7-3.9c-0.8-2.4-2.7-4.4-5.1-5.3c-1.4-0.5-2.8-0.8-4.3-0.8
			c-1.9,0-3.8,0.4-5.5,1.3c-1.6,0.8-3,2-4.1,3.4c-1.2,1.4-2,3.1-2.6,4.8c-0.6,1.8-0.9,3.6-0.9,5.5c0,1.3,0.2,2.7,0.7,3.9
			c0.4,1.2,1.1,2.3,1.9,3.2c0.9,0.9,2,1.7,3.2,2.1c1.4,0.5,2.9,0.8,4.4,0.8c1.9,0,3.7-0.4,5.4-1.2c1.6-0.8,3-2,4.1-3.3
			c1.2-1.4,2-3.1,2.6-4.8C405.6,158.4,405.9,156.5,405.9,154.7L405.9,154.7z"/>
		<path d="M446,184.6l9.7-54.8h18l-9.7,54.8H446z"/>
		<path d="M507.9,144.9l-7,39.7H483l7-39.7h-13.9l2.7-15.1H524l-2.7,15.1H507.9z"/>
	</g>
</g>
</svg>
