<svg viewBox="0 0 784.76 915.04" xmlns="http://www.w3.org/2000/svg"><path d="m439.82 539.57a47.45 47.45 0 1 1 -47.44-47.44 47.44 47.44 0 0 1 47.44 47.44z"/><path d="m487.27 710.79-53.64-194.22-82.44 45.62z"/><path d="m704.79 9.58c-21.92 50.23-62.13 91.69-112.86 117.55a153.76 153.76 0 0 0 6.64-107.08 161.05 161.05 0 0 0 -5.57-15.36c-11.94 60.23-59.35 112-127.16 129.68a188.27 188.27 0 0 1 -25.79 4.77 579.16 579.16 0 0 0 7.84-94.86q0-22.35-1.68-44.28a182.88 182.88 0 0 0 -108.6 140.08 181.87 181.87 0 0 1 -26-4.86c-66.12-17.58-112.34-69.09-124-129a160.58 160.58 0 0 0 -5.42 15.28 155.87 155.87 0 0 0 6.46 106.5c-49.47-25.73-88.67-67-110-117 11.91 154.52 142 277.87 305.06 289.42v.57c1.36-.07 2.7-.2 4.05-.28 1.33.08 2.65.21 4 .28v-.56c167.24-11.43 300.81-135.43 313.03-290.85z"/><path d="m636.41 215.53a356.86 356.86 0 0 1 -92.82 71.84c79.77 49.52 132.92 137.87 132.92 238.63 0 155.06-125.69 280.75-280.75 280.75s-280.76-125.65-280.76-280.75c0-98.32 50.58-184.79 127.1-234.94a350 350 0 0 1 -96-73.73c-89.1 71.94-146.1 181.93-146.1 305.33 0 216.7 175.67 392.34 392.38 392.34s392.38-175.64 392.38-392.34c0-124.44-57.98-235.28-148.35-307.13z"/></svg>